# xmcd CD database file
#
# Track frame offsets:
#	150
#	12436
#	24273
#	37650
#	54943
#	66295
#	77194
#	101894
#	115683
#	127262
#	138128
#	148926
#	162416
#	178285
#	212203
#	228033
#	238357
#	248438
#
# Disc length: 3451 seconds
#
# Revision: 5
# Processed by: cddbd v1.5.2PL0 Copyright (c) Steve Scherf et al.
# Submitted via: CDex 1.51
#
DISCID=f90d7912
DTITLE=John Lee Hooker - Memories CD 2-2
DYEAR=2004
DGENRE=Blues
TTITLE0=I'm In The mood
TTITLE1=Good Rockin' Mama
TTITLE2=Baby Lee
TTITLE3=Blues Before Sunrise
TTITLE4=Boogie Chillen 2
TTITLE5=Bottle Up And Go
TTITLE6=Sugar Mama
TTITLE7=Hobo Blues
TTITLE8=Little Wheel
TTITLE9=No Shoes
TTITLE10=Maudie
TTITLE11=Trouble Blues
TTITLE12=It Serves Me Right To Suffer
TTITLE13=Tupelo
TTITLE14=Dirty Ground Hog
TTITLE15=Big Legs Tight Skirt
TTITLE16=Want Ad Blues
TTITLE17=Dusty Road
EXTD=YEAR: 2004
EXTT0=
EXTT1=
EXTT2=
EXTT3=
EXTT4=
EXTT5=
EXTT6=
EXTT7=
EXTT8=
EXTT9=
EXTT10=
EXTT11=
EXTT12=
EXTT13=
EXTT14=
EXTT15=
EXTT16=
EXTT17=
PLAYORDER=
